HIERARCHY
ROOT Hips
{
	OFFSET 0.000000 0.000000 0.000000
	CHANNELS 6 Xposition Yposition Zposition Zrotation Yrotation Xrotation 
	JOINT LHipJoint
	{
		OFFSET 0.000000 0.000000 0.000000
		CHANNELS 3 Zrotation Yrotation Xrotation
		JOINT LeftUpLeg
		{
			OFFSET 1.363060 -1.794630 0.839290
			CHANNELS 3 Zrotation Yrotation Xrotation
			JOINT LeftLeg
			{
				OFFSET 2.448110 -6.726130 0.000000
				CHANNELS 3 Zrotation Yrotation Xrotation
				JOINT LeftFoot
				{
					OFFSET 2.562200 -7.039590 0.000000
					CHANNELS 3 Zrotation Yrotation Xrotation
					JOINT LeftToeBase
					{
						OFFSET 0.157640 -0.433110 2.322550
						CHANNELS 3 Zrotation Yrotation Xrotation
						End Site
						{
							OFFSET 0.000000 0.000000 0.000000
						}
					}
				}
			}
		}
	}
	JOINT RHipJoint
	{
		OFFSET 0.000000 0.000000 0.000000
		CHANNELS 3 Zrotation Yrotation Xrotation
		JOINT RightUpLeg
		{
			OFFSET -1.305520 -1.794630 0.839290
			CHANNELS 3 Zrotation Yrotation Xrotation
			JOINT RightLeg
			{
				OFFSET -2.542530 -6.985550 0.000000
				CHANNELS 3 Zrotation Yrotation Xrotation
				JOINT RightFoot
				{
					OFFSET -2.568260 -7.056230 0.000000
					CHANNELS 3 Zrotation Yrotation Xrotation
					JOINT RightToeBase
					{
						OFFSET -0.164730 -0.452590 2.363150
						CHANNELS 3 Zrotation Yrotation Xrotation
						End Site
						{
							OFFSET 0.000000 0.000000 0.000000
						}
					}
				}
			}
		}
	}
	JOINT LowerBack
	{
		OFFSET 0.000000 0.000000 0.000000
		CHANNELS 3 Zrotation Yrotation Xrotation
		JOINT Spine
		{
			OFFSET 0.028270 2.035590 -0.193380
			CHANNELS 3 Zrotation Yrotation Xrotation
			JOINT Spine1
			{
				OFFSET 0.056720 2.048850 -0.042750
				CHANNELS 3 Zrotation Yrotation Xrotation
				JOINT Neck
				{
					OFFSET 0.000000 0.000000 0.000000
					CHANNELS 3 Zrotation Yrotation Xrotation
					JOINT Neck1
					{
						OFFSET -0.054170 1.746240 0.172020
						CHANNELS 3 Zrotation Yrotation Xrotation
						JOINT Head
						{
							OFFSET 0.104070 1.761360 -0.123970
							CHANNELS 3 Zrotation Yrotation Xrotation
							End Site
							{
								OFFSET 0.000000 0.000000 0.000000
							}
						}
					}
				}
				JOINT LeftShoulder
				{
					OFFSET 0.000000 0.000000 0.000000
					CHANNELS 3 Zrotation Yrotation Xrotation
					JOINT LeftArm
					{
						OFFSET 3.362410 1.200890 -0.311210
						CHANNELS 3 Zrotation Yrotation Xrotation
						JOINT LeftForeArm
						{
							OFFSET 4.983000 -0.000000 -0.000000
							CHANNELS 3 Zrotation Yrotation Xrotation
							JOINT LeftHand
							{
								OFFSET 3.483560 -0.000000 -0.000000
								CHANNELS 3 Zrotation Yrotation Xrotation
								JOINT LeftFingerBase
								{
									OFFSET 0.000000 0.000000 0.000000
									CHANNELS 3 Zrotation Yrotation Xrotation
									JOINT LeftHandIndex1
									{
										OFFSET 0.715260 -0.000000 -0.000000
										CHANNELS 3 Zrotation Yrotation Xrotation
										End Site
										{
											OFFSET 0.000000 0.000000 0.000000
										}
									}
								}
								JOINT LThumb
								{
									OFFSET 0.000000 0.000000 0.000000
									CHANNELS 3 Zrotation Yrotation Xrotation
									End Site
									{
										OFFSET 0.000000 0.000000 0.000000
									}
								}
							}
						}
					}
				}
				JOINT RightShoulder
				{
					OFFSET 0.000000 0.000000 0.000000
					CHANNELS 3 Zrotation Yrotation Xrotation
					JOINT RightArm
					{
						OFFSET -3.136600 1.374050 -0.404650
						CHANNELS 3 Zrotation Yrotation Xrotation
						JOINT RightForeArm
						{
							OFFSET -5.241900 -0.000000 -0.000000
							CHANNELS 3 Zrotation Yrotation Xrotation
							JOINT RightHand
							{
								OFFSET -3.444170 -0.000000 -0.000000
								CHANNELS 3 Zrotation Yrotation Xrotation
								JOINT RightFingerBase
								{
									OFFSET 0.000000 0.000000 0.000000
									CHANNELS 3 Zrotation Yrotation Xrotation
									JOINT RightHandIndex1
									{
										OFFSET -0.622530 -0.000000 -0.000000
										CHANNELS 3 Zrotation Yrotation Xrotation
										End Site
										{
											OFFSET 0.000000 0.000000 0.000000
										}
									}
								}
								JOINT RThumb
								{
									OFFSET 0.000000 0.000000 0.000000
									CHANNELS 3 Zrotation Yrotation Xrotation
									End Site
									{
										OFFSET 0.000000 0.000000 0.000000
									}
								}
							}
						}
					}
				}
			}
		}
	}
}
MOTION
Frames: 8
Frame Time: 0.008333
10.361802 17.825547 49.691863 -176.310362 -14.989953 178.086391 -1.214572 3.697215 1.134727 -15.306585 -29.640158 -1.155832 -1.575800 9.359106 26.710462 -2.009874 8.191533 -1.754756 2.359800 -9.578300 -27.621800 -2.632506 -3.451219 1.232910 30.270792 15.494831 2.384780 2.877914 -7.275673 23.666384 6.850335 -28.335469 -28.075502 -2.006100 -8.878800 25.417000 7.399104 0.521663 5.285495 2.849383 1.468521 2.655671 -6.618545 0.033090 -10.439636 9.440632 18.549017 -8.479331 1.387522 24.849081 8.935684 -2.197700 12.618700 5.128600 -2.065007 -10.104003 1.179293 -89.411738 6.842661 29.895968 23.812016 -23.858800 -6.617263 1.624842 1.117618 19.545022 12.683281 -32.723420 -6.612900 -7.125000 0.000000 0.000000 -11.592900 -4.455400 12.712900 0.316230 11.829272 2.806274 88.497724 -9.449562 33.067387 -24.617594 28.721504 -8.139064 -0.033935 1.248118 -12.189245 36.844844 -60.592565 -33.395000 7.125000 0.000000 0.000000 -152.090900 -8.954500 26.716600 
10.362630 17.774772 49.704291 177.227378 -13.881566 176.962527 -1.575430 4.166183 1.852282 -22.936506 -27.917913 3.769298 -2.557378 7.924974 22.735741 -2.581578 9.500204 -1.321003 2.344800 -9.550200 -27.532000 -2.745171 -3.795577 1.460040 24.072338 15.868182 2.158851 1.694967 -8.899616 29.038321 5.698955 -25.740146 -29.488268 -1.811400 -8.461700 24.125400 1.856676 0.999285 7.901714 -0.388415 1.680603 4.344855 -4.384880 0.571944 -11.896133 7.552398 18.939965 -9.062669 3.837366 24.927997 8.859475 -1.340500 12.712900 4.544100 -1.832828 -10.188693 1.160186 -89.481442 6.897367 31.302842 24.514873 -24.450545 -6.740166 1.544734 0.885618 18.327219 9.733666 -27.159273 -4.126600 -7.125000 0.000000 0.000000 -12.884400 1.730800 12.820800 0.517975 11.642418 2.722929 88.341243 -9.889737 35.259800 -23.871555 27.879712 -7.718732 0.189335 1.269586 -7.774666 30.863230 -57.690798 -26.928600 7.125000 0.000000 0.000000 -27.218300 8.137200 -153.645600 
10.354109 17.715358 49.685117 172.576588 -12.451787 176.369370 -1.364117 4.151187 1.888470 -29.483951 -27.352033 5.712061 -2.234015 8.533874 24.529733 -2.737171 10.158421 -4.943113 2.297800 -9.460600 -27.247200 -2.956956 -4.246437 1.898199 19.030573 15.213852 3.426178 1.737290 -8.214811 27.618621 6.486712 -25.532601 -26.353897 -1.467300 -7.655100 21.671400 -2.179235 1.792013 8.884906 -2.596461 2.112808 5.447707 -2.839358 1.060970 -12.303621 8.867303 18.681468 -8.107824 1.735122 24.847594 7.582759 -2.216600 12.534800 4.396600 -1.659976 -10.057721 1.105466 -89.382220 6.739632 30.327456 24.011890 -24.027949 -6.634940 1.684265 0.969117 18.870705 9.340729 -31.011751 -4.381900 -7.125000 0.000000 0.000000 -13.355900 -2.114700 14.226200 0.612538 11.692729 2.647749 88.257196 -10.232590 37.318796 -23.137427 27.015916 -7.296683 0.432196 1.242617 -2.987911 24.963151 -55.398414 -20.927100 7.125000 0.000000 0.000000 -26.255500 10.310400 -156.136300 
10.443349 17.890761 49.795306 -176.491301 -11.706158 179.597453 -1.365929 3.438807 1.237198 -13.730796 -27.225740 -2.571864 -2.241421 8.288021 23.460932 -2.851330 10.111195 0.881696 2.326900 -9.516100 -27.423500 -2.582860 -3.118199 0.833127 29.891178 18.126983 -0.326313 2.321370 -8.575252 26.551647 6.585951 -27.436599 -27.398457 -1.560900 -7.884300 22.363100 6.160401 1.932318 6.399830 3.081975 3.315060 1.310265 -6.245644 0.976936 -11.438647 7.501611 18.836751 -6.672625 1.676709 24.814911 5.483605 -2.445200 12.366700 3.431300 -2.182542 -10.482189 1.399612 -89.170864 6.859609 29.873127 23.781007 -23.831713 -6.593149 1.736442 1.005696 19.290187 9.459402 -32.589842 -4.631400 -7.125000 0.000000 0.000000 -13.408700 -3.730600 14.649000 0.428386 11.400974 2.828271 88.227212 -10.861273 39.334016 -22.519511 26.061881 -6.912629 0.690232 1.163020 1.770742 18.199935 -53.810689 -14.600000 7.125000 0.000000 0.000000 -24.451600 11.419000 -158.790400 
10.447018 17.904727 49.791519 -176.560045 -11.448817 -179.847383 -1.337997 3.265412 1.102760 -13.596026 -26.950414 -3.505545 -2.091796 8.575647 24.203785 -2.724539 9.831910 0.455040 2.404200 -9.661700 -27.887900 -2.536217 -3.076997 0.833572 29.584896 18.292157 -0.365452 2.534347 -8.209294 25.417633 6.907726 -27.804475 -26.596230 -1.581200 -7.933100 22.511000 6.017199 2.066956 5.832387 3.050988 3.414357 1.088021 -6.165523 1.033570 -11.109258 8.668131 18.663239 -6.077589 0.177973 24.796841 5.078509 -3.029000 12.312400 3.558200 -2.202110 -10.415912 1.364249 -89.212817 6.769800 29.878721 23.846064 -23.869450 -6.583486 1.748414 0.952655 19.213861 8.626131 -31.643669 -4.030000 -7.125000 0.000000 0.000000 -13.818100 -2.640100 14.871200 0.437023 11.471787 2.831841 88.133306 -11.231587 41.222738 -22.014601 25.368139 -6.617528 0.938189 1.005758 6.399303 10.555320 -52.895725 -7.940000 7.125000 0.000000 0.000000 -21.834800 11.526600 -161.539500 
10.452107 17.926386 49.794833 -176.610360 -11.047669 -179.080791 -1.276937 3.012304 0.876284 -13.442463 -26.814115 -4.810585 -1.820355 9.080059 25.521152 -2.593718 9.550339 -0.551625 2.446900 -9.740800 -28.141400 -2.465955 -3.057779 0.858926 29.161820 18.461153 -0.229292 2.903027 -7.506867 23.312948 7.523210 -28.573926 -25.031304 -1.484600 -7.698100 21.800800 5.864835 2.308677 5.237643 3.034280 3.634434 0.716901 -6.115234 1.166263 -10.809769 8.445229 18.763615 -5.750962 0.251056 24.857011 4.611524 -3.045500 12.313600 3.331900 -2.213605 -10.471511 1.367607 -89.249698 6.759648 30.653227 24.235522 -24.181252 -6.639736 1.685977 0.826423 18.407123 7.405269 -28.315333 -3.030000 -7.125000 0.000000 0.000000 -14.350900 0.911300 14.588400 0.450476 11.416979 2.872307 87.866677 -12.043288 44.702547 -21.324856 24.410268 -6.295952 1.266620 0.596711 15.208967 -4.070823 -53.336420 4.157800 7.125000 0.000000 0.000000 -16.048600 9.016400 -166.092900 
10.456013 17.926268 49.800159 -176.652152 -11.274710 -179.165958 -1.283566 3.023311 0.892307 -13.467360 -26.799292 -4.764515 -1.831646 9.054608 25.461603 -2.494102 9.326982 -0.396260 2.350600 -9.561000 -27.566500 -2.467445 -3.074626 0.876416 29.202139 18.493772 -0.076330 2.918446 -7.480931 23.277981 7.520299 -28.675736 -25.305208 -1.484100 -7.696800 21.797000 5.819007 2.251146 5.266442 3.005531 3.553182 0.861748 -6.081631 1.145114 -10.807988 8.059084 18.877803 -5.851494 0.624596 24.933576 4.497890 -2.903700 12.345400 3.217100 -2.202808 -10.519203 1.382143 -89.147041 6.659796 30.704241 24.270775 -24.224048 -6.657541 1.695470 0.814247 18.008289 6.918579 -28.350301 -2.776600 -7.125000 0.000000 0.000000 -14.641100 0.953900 14.892500 0.452306 11.386370 2.865992 87.815503 -11.954343 44.569404 -21.405389 24.496303 -6.326681 1.270706 0.582440 15.519455 -4.418025 -53.291264 4.439200 7.125000 0.000000 0.000000 -15.909800 9.002300 -166.218900 
10.458025 17.929937 49.803236 -176.701996 -11.322984 -179.057863 -1.296271 2.999686 0.873583 -13.453043 -26.768020 -4.878868 -1.844135 9.039959 25.394648 -2.559639 9.473972 -0.295361 2.475300 -9.792800 -28.308400 -2.459563 -3.062144 0.872794 29.111564 18.515799 -0.184151 2.926825 -7.476570 23.244877 7.515591 -28.651313 -25.304890 -1.569000 -7.904000 22.422800 5.774042 2.254583 5.176367 2.966486 3.541563 0.840509 -6.061286 1.145457 -10.756981 8.027984 18.885731 -5.853229 0.582239 24.945520 4.438311 -2.915100 12.344900 3.200900 -2.202494 -10.525355 1.388455 -89.068223 6.689611 30.791333 24.129328 -24.047817 -6.580127 1.648582 0.874071 18.719587 8.668416 -28.300227 -3.696900 -7.125000 0.000000 0.000000 -13.597700 0.726300 13.820800 0.454039 11.382277 2.868452 87.800220 -11.895712 44.507747 -21.505077 24.629715 -6.392558 1.250326 0.614962 14.960606 -3.531250 -53.799774 3.728100 7.125000 0.000000 0.000000 -16.268500 8.672100 -165.768700 
